<svg xmlns="http://www.w3.org/2000/svg" xmlns:xlink="http://www.w3.org/1999/xlink" width="500" zoomAndPan="magnify" viewBox="0 0 375 374.999991" height="500" preserveAspectRatio="xMidYMid meet" version="1.0"><defs><g/><clipPath id="id1"><path d="M 64.425781 114.039062 L 310.425781 114.039062 L 310.425781 189.039062 L 64.425781 189.039062 Z M 64.425781 114.039062 " clip-rule="nonzero"/></clipPath></defs><rect x="-37.5" width="450" fill="#ffffff" y="-37.499999" height="449.999989" fill-opacity="1"/><rect x="-37.5" width="450" fill="#ffffff" y="-37.499999" height="449.999989" fill-opacity="1"/><rect x="-37.5" width="450" fill="#ffffff" y="-37.499999" height="449.999989" fill-opacity="1"/><rect x="-37.5" width="450" fill="#ffffff" y="-37.499999" height="449.999989" fill-opacity="1"/><g clip-path="url(#id1)"><path fill="#1880ad" d="M 310.027344 143.804688 C 292.089844 164.285156 263.425781 173.863281 228.015625 173.574219 C 222.960938 173.53125 217.910156 173.304688 212.871094 172.953125 C 188.59375 171.257812 164.539062 166.65625 140.917969 165.816406 C 116.058594 164.933594 87.898438 167.875 64.824219 176.96875 C 78.167969 164.578125 98.625 157.332031 126.195312 155.234375 C 163.417969 152.402344 199.554688 164.082031 236.539062 163.054688 C 264.425781 162.28125 288.3125 154.847656 310.027344 143.804688 Z M 218.195312 138.625 C 224.527344 137.097656 230.925781 135.675781 237.804688 135.054688 C 235.746094 137.453125 234.113281 140.109375 232.65625 142.871094 C 232.625 141.546875 232.59375 140.21875 232.5625 138.894531 C 227.773438 138.804688 222.984375 138.714844 218.195312 138.625 Z M 121.753906 138.847656 C 143.953125 128.195312 166.390625 118.210938 191.257812 115.074219 C 179.269531 112.679688 165.585938 114.609375 150.949219 118.960938 C 148.542969 117.054688 146.566406 114.679688 143.417969 114.367188 C 136.132812 113.636719 129.726562 120.160156 124.015625 123.933594 C 128.402344 122.511719 132.820312 121.195312 137.390625 120.5 C 131.707031 126.011719 126.59375 132.253906 121.753906 138.847656 Z M 120.257812 144.523438 C 164.613281 123.257812 202.25 111.390625 214.871094 122.894531 C 189.4375 121.832031 156.542969 130.882812 120.257812 144.523438 Z M 236.902344 158.402344 C 246.769531 144.972656 260.003906 132.957031 274.457031 121.453125 C 209.425781 123.46875 150.261719 133.679688 99.671875 155.878906 C 149.328125 142.460938 200.367188 133.011719 253.875 130.648438 C 244.539062 138.832031 238.765625 148.050781 236.902344 158.402344 Z M 90.824219 177.148438 C 119.085938 167.789062 155.960938 175.777344 184.675781 179.164062 C 217.484375 183.035156 245.558594 180.996094 270.304688 174.804688 C 253.230469 188.542969 223.277344 191.605469 184.195312 187.105469 C 152.765625 183.488281 122.773438 177.148438 90.824219 177.148438 Z M 90.824219 177.148438 " fill-opacity="1" fill-rule="evenodd"/></g><g fill="#1c306e" fill-opacity="1"><g transform="translate(83.695959, 230.390682)"><g><path d="M 2.21875 0 L 2.21875 -21 L 8.671875 -21 C 12.367188 -21 15.09375 -20.054688 16.84375 -18.171875 C 18.59375 -16.296875 19.46875 -13.71875 19.46875 -10.4375 C 19.46875 -7.21875 18.59375 -4.671875 16.84375 -2.796875 C 15.09375 -0.929688 12.367188 0 8.671875 0 Z M 4.734375 -2.09375 L 8.609375 -2.09375 C 10.648438 -2.09375 12.273438 -2.425781 13.484375 -3.09375 C 14.691406 -3.769531 15.554688 -4.734375 16.078125 -5.984375 C 16.597656 -7.234375 16.859375 -8.71875 16.859375 -10.4375 C 16.859375 -12.195312 16.597656 -13.707031 16.078125 -14.96875 C 15.554688 -16.226562 14.691406 -17.195312 13.484375 -17.875 C 12.273438 -18.5625 10.648438 -18.90625 8.609375 -18.90625 L 4.734375 -18.90625 Z M 4.734375 -2.09375 "/></g></g></g><g fill="#1880ad" fill-opacity="1"><g transform="translate(112.606114, 230.390682)"><g><path d="M 2.0625 0 L 2.0625 -14.875 L 4.34375 -14.875 L 4.5 -12.203125 C 4.976562 -13.148438 5.664062 -13.890625 6.5625 -14.421875 C 7.46875 -14.960938 8.488281 -15.234375 9.625 -15.234375 C 11.382812 -15.234375 12.789062 -14.695312 13.84375 -13.625 C 14.894531 -12.5625 15.421875 -10.921875 15.421875 -8.703125 L 15.421875 0 L 12.90625 0 L 12.90625 -8.4375 C 12.90625 -11.53125 11.625 -13.078125 9.0625 -13.078125 C 7.78125 -13.078125 6.710938 -12.613281 5.859375 -11.6875 C 5.015625 -10.757812 4.59375 -9.429688 4.59375 -7.703125 L 4.59375 0 Z M 2.0625 0 "/></g></g></g><g fill="#1880ad" fill-opacity="1"><g transform="translate(137.806094, 230.390682)"><g><path d="M 7.015625 0.359375 C 5.773438 0.359375 4.742188 0.148438 3.921875 -0.265625 C 3.109375 -0.691406 2.5 -1.253906 2.09375 -1.953125 C 1.695312 -2.648438 1.5 -3.410156 1.5 -4.234375 C 1.5 -5.753906 2.078125 -6.921875 3.234375 -7.734375 C 4.398438 -8.554688 5.984375 -8.96875 7.984375 -8.96875 L 12 -8.96875 L 12 -9.15625 C 12 -10.445312 11.65625 -11.425781 10.96875 -12.09375 C 10.289062 -12.769531 9.382812 -13.109375 8.25 -13.109375 C 7.269531 -13.109375 6.425781 -12.863281 5.71875 -12.375 C 5.007812 -11.882812 4.5625 -11.171875 4.375 -10.234375 L 1.796875 -10.234375 C 1.898438 -11.304688 2.265625 -12.210938 2.890625 -12.953125 C 3.523438 -13.691406 4.3125 -14.253906 5.25 -14.640625 C 6.1875 -15.035156 7.1875 -15.234375 8.25 -15.234375 C 10.332031 -15.234375 11.894531 -14.675781 12.9375 -13.5625 C 13.988281 -12.457031 14.515625 -10.988281 14.515625 -9.15625 L 14.515625 0 L 12.265625 0 L 12.125 -2.671875 C 11.695312 -1.828125 11.078125 -1.109375 10.265625 -0.515625 C 9.460938 0.0664062 8.378906 0.359375 7.015625 0.359375 Z M 7.40625 -1.765625 C 8.363281 -1.765625 9.1875 -2.015625 9.875 -2.515625 C 10.570312 -3.015625 11.097656 -3.664062 11.453125 -4.46875 C 11.816406 -5.269531 12 -6.109375 12 -6.984375 L 12 -7.015625 L 8.1875 -7.015625 C 6.707031 -7.015625 5.660156 -6.757812 5.046875 -6.25 C 4.441406 -5.738281 4.140625 -5.101562 4.140625 -4.34375 C 4.140625 -3.570312 4.421875 -2.945312 4.984375 -2.46875 C 5.554688 -2 6.363281 -1.765625 7.40625 -1.765625 Z M 7.40625 -1.765625 "/></g></g></g><g fill="#1880ad" fill-opacity="1"><g transform="translate(162.076081, 230.390682)"><g><path d="M 7.5 0.359375 C 5.738281 0.359375 4.335938 -0.171875 3.296875 -1.234375 C 2.253906 -2.304688 1.734375 -3.957031 1.734375 -6.1875 L 1.734375 -14.875 L 4.265625 -14.875 L 4.265625 -6.453125 C 4.265625 -3.347656 5.53125 -1.796875 8.0625 -1.796875 C 9.363281 -1.796875 10.4375 -2.257812 11.28125 -3.1875 C 12.132812 -4.125 12.5625 -5.453125 12.5625 -7.171875 L 12.5625 -14.875 L 15.09375 -14.875 L 15.09375 0 L 12.8125 0 L 12.625 -2.671875 C 12.164062 -1.734375 11.476562 -0.992188 10.5625 -0.453125 C 9.65625 0.0859375 8.632812 0.359375 7.5 0.359375 Z M 7.5 0.359375 "/></g></g></g><g fill="#1880ad" fill-opacity="1"><g transform="translate(187.276062, 230.390682)"><g><path d="M 7.953125 0 C 6.585938 0 5.515625 -0.328125 4.734375 -0.984375 C 3.953125 -1.648438 3.5625 -2.84375 3.5625 -4.5625 L 3.5625 -12.75 L 0.984375 -12.75 L 0.984375 -14.875 L 3.5625 -14.875 L 3.90625 -18.453125 L 6.09375 -18.453125 L 6.09375 -14.875 L 10.46875 -14.875 L 10.46875 -12.75 L 6.09375 -12.75 L 6.09375 -4.5625 C 6.09375 -3.625 6.28125 -2.988281 6.65625 -2.65625 C 7.039062 -2.320312 7.710938 -2.15625 8.671875 -2.15625 L 10.234375 -2.15625 L 10.234375 0 Z M 7.953125 0 "/></g></g></g><g fill="#1880ad" fill-opacity="1"><g transform="translate(206.926047, 230.390682)"><g><path d="M 3.59375 -18.1875 C 3.09375 -18.1875 2.675781 -18.347656 2.34375 -18.671875 C 2.019531 -19.003906 1.859375 -19.421875 1.859375 -19.921875 C 1.859375 -20.398438 2.019531 -20.796875 2.34375 -21.109375 C 2.675781 -21.429688 3.09375 -21.59375 3.59375 -21.59375 C 4.070312 -21.59375 4.484375 -21.429688 4.828125 -21.109375 C 5.171875 -20.796875 5.34375 -20.398438 5.34375 -19.921875 C 5.34375 -19.421875 5.171875 -19.003906 4.828125 -18.671875 C 4.484375 -18.347656 4.070312 -18.1875 3.59375 -18.1875 Z M 2.34375 0 L 2.34375 -14.875 L 4.859375 -14.875 L 4.859375 0 Z M 2.34375 0 "/></g></g></g><g fill="#1880ad" fill-opacity="1"><g transform="translate(222.136045, 230.390682)"><g><path d="M 14.28125 6.59375 L 14.28125 -2.453125 C 13.800781 -1.734375 13.109375 -1.082031 12.203125 -0.5 C 11.304688 0.0703125 10.175781 0.359375 8.8125 0.359375 C 7.332031 0.359375 6.035156 0.0195312 4.921875 -0.65625 C 3.816406 -1.34375 2.957031 -2.273438 2.34375 -3.453125 C 1.738281 -4.628906 1.4375 -5.96875 1.4375 -7.46875 C 1.4375 -8.96875 1.742188 -10.300781 2.359375 -11.46875 C 2.984375 -12.644531 3.84375 -13.566406 4.9375 -14.234375 C 6.039062 -14.898438 7.34375 -15.234375 8.84375 -15.234375 C 10.070312 -15.234375 11.15625 -14.984375 12.09375 -14.484375 C 13.03125 -13.984375 13.757812 -13.285156 14.28125 -12.390625 L 14.515625 -14.875 L 16.796875 -14.875 L 16.796875 6.59375 Z M 9.09375 -1.828125 C 10.09375 -1.828125 10.976562 -2.0625 11.75 -2.53125 C 12.519531 -3 13.117188 -3.65625 13.546875 -4.5 C 13.972656 -5.34375 14.1875 -6.320312 14.1875 -7.4375 C 14.1875 -8.5625 13.972656 -9.539062 13.546875 -10.375 C 13.117188 -11.21875 12.519531 -11.875 11.75 -12.34375 C 10.976562 -12.8125 10.09375 -13.046875 9.09375 -13.046875 C 8.113281 -13.046875 7.238281 -12.8125 6.46875 -12.34375 C 5.695312 -11.875 5.09375 -11.21875 4.65625 -10.375 C 4.226562 -9.539062 4.015625 -8.5625 4.015625 -7.4375 C 4.015625 -6.320312 4.226562 -5.34375 4.65625 -4.5 C 5.09375 -3.65625 5.695312 -3 6.46875 -2.53125 C 7.238281 -2.0625 8.113281 -1.828125 9.09375 -1.828125 Z M 9.09375 -1.828125 "/></g></g></g><g fill="#1880ad" fill-opacity="1"><g transform="translate(249.016029, 230.390682)"><g><path d="M 7.5 0.359375 C 5.738281 0.359375 4.335938 -0.171875 3.296875 -1.234375 C 2.253906 -2.304688 1.734375 -3.957031 1.734375 -6.1875 L 1.734375 -14.875 L 4.265625 -14.875 L 4.265625 -6.453125 C 4.265625 -3.347656 5.53125 -1.796875 8.0625 -1.796875 C 9.363281 -1.796875 10.4375 -2.257812 11.28125 -3.1875 C 12.132812 -4.125 12.5625 -5.453125 12.5625 -7.171875 L 12.5625 -14.875 L 15.09375 -14.875 L 15.09375 0 L 12.8125 0 L 12.625 -2.671875 C 12.164062 -1.734375 11.476562 -0.992188 10.5625 -0.453125 C 9.65625 0.0859375 8.632812 0.359375 7.5 0.359375 Z M 7.5 0.359375 "/></g></g></g><g fill="#1880ad" fill-opacity="1"><g transform="translate(274.216009, 230.390682)"><g><path d="M 8.765625 0.359375 C 7.335938 0.359375 6.070312 0.0351562 4.96875 -0.609375 C 3.875 -1.265625 3.007812 -2.171875 2.375 -3.328125 C 1.75 -4.484375 1.4375 -5.851562 1.4375 -7.4375 C 1.4375 -9 1.742188 -10.363281 2.359375 -11.53125 C 2.984375 -12.707031 3.847656 -13.617188 4.953125 -14.265625 C 6.066406 -14.910156 7.351562 -15.234375 8.8125 -15.234375 C 10.257812 -15.234375 11.503906 -14.910156 12.546875 -14.265625 C 13.597656 -13.617188 14.40625 -12.765625 14.96875 -11.703125 C 15.53125 -10.640625 15.8125 -9.5 15.8125 -8.28125 C 15.8125 -8.0625 15.804688 -7.84375 15.796875 -7.625 C 15.785156 -7.40625 15.78125 -7.15625 15.78125 -6.875 L 3.9375 -6.875 C 3.988281 -5.726562 4.25 -4.78125 4.71875 -4.03125 C 5.195312 -3.28125 5.789062 -2.710938 6.5 -2.328125 C 7.207031 -1.953125 7.960938 -1.765625 8.765625 -1.765625 C 9.796875 -1.765625 10.660156 -2.003906 11.359375 -2.484375 C 12.066406 -2.960938 12.582031 -3.613281 12.90625 -4.4375 L 15.390625 -4.4375 C 14.992188 -3.0625 14.226562 -1.914062 13.09375 -1 C 11.96875 -0.09375 10.523438 0.359375 8.765625 0.359375 Z M 8.765625 -13.109375 C 7.554688 -13.109375 6.488281 -12.742188 5.5625 -12.015625 C 4.632812 -11.285156 4.097656 -10.21875 3.953125 -8.8125 L 13.3125 -8.8125 C 13.257812 -10.15625 12.800781 -11.207031 11.9375 -11.96875 C 11.082031 -12.726562 10.023438 -13.109375 8.765625 -13.109375 Z M 8.765625 -13.109375 "/></g></g></g><g fill="#1c306e" fill-opacity="1"><g transform="translate(115.917829, 260.00424)"><g><path d="M 0.484375 0.046875 C 0.410156 0.046875 0.347656 0.03125 0.296875 0 C 0.253906 -0.03125 0.234375 -0.0625 0.234375 -0.09375 C 0.234375 -0.144531 0.257812 -0.1875 0.3125 -0.21875 C 0.363281 -0.25 0.414062 -0.273438 0.46875 -0.296875 C 0.71875 -0.359375 0.898438 -0.4375 1.015625 -0.53125 C 1.140625 -0.625 1.203125 -0.78125 1.203125 -1 L 1.203125 -5.84375 C 1.203125 -6 1.179688 -6.117188 1.140625 -6.203125 C 1.097656 -6.285156 1.03125 -6.347656 0.9375 -6.390625 C 0.84375 -6.441406 0.707031 -6.484375 0.53125 -6.515625 C 0.34375 -6.554688 0.25 -6.628906 0.25 -6.734375 C 0.25 -6.773438 0.273438 -6.804688 0.328125 -6.828125 C 0.378906 -6.859375 0.4375 -6.875 0.5 -6.875 C 0.664062 -6.875 0.828125 -6.867188 0.984375 -6.859375 C 1.148438 -6.859375 1.304688 -6.851562 1.453125 -6.84375 C 1.597656 -6.832031 1.742188 -6.828125 1.890625 -6.828125 C 2.054688 -6.828125 2.21875 -6.832031 2.375 -6.84375 C 2.539062 -6.851562 2.707031 -6.859375 2.875 -6.859375 C 3.050781 -6.867188 3.222656 -6.875 3.390625 -6.875 C 3.453125 -6.875 3.503906 -6.859375 3.546875 -6.828125 C 3.597656 -6.804688 3.625 -6.773438 3.625 -6.734375 C 3.625 -6.671875 3.597656 -6.625 3.546875 -6.59375 C 3.503906 -6.5625 3.441406 -6.535156 3.359375 -6.515625 C 3.078125 -6.453125 2.875 -6.378906 2.75 -6.296875 C 2.625 -6.210938 2.5625 -6.070312 2.5625 -5.875 L 2.5625 -1.0625 C 2.5625 -0.851562 2.601562 -0.703125 2.6875 -0.609375 C 2.78125 -0.515625 2.953125 -0.46875 3.203125 -0.46875 L 4.359375 -0.46875 C 4.515625 -0.46875 4.660156 -0.492188 4.796875 -0.546875 C 4.929688 -0.609375 5.039062 -0.679688 5.125 -0.765625 C 5.25 -0.878906 5.351562 -1 5.4375 -1.125 C 5.519531 -1.25 5.597656 -1.394531 5.671875 -1.5625 C 5.722656 -1.664062 5.769531 -1.742188 5.8125 -1.796875 C 5.851562 -1.859375 5.894531 -1.890625 5.9375 -1.890625 C 5.988281 -1.890625 6.023438 -1.863281 6.046875 -1.8125 C 6.066406 -1.769531 6.078125 -1.726562 6.078125 -1.6875 C 6.078125 -1.675781 6.070312 -1.648438 6.0625 -1.609375 C 6.0625 -1.578125 6.0625 -1.550781 6.0625 -1.53125 C 6 -1.332031 5.945312 -1.15625 5.90625 -1 C 5.875 -0.851562 5.84375 -0.710938 5.8125 -0.578125 C 5.789062 -0.441406 5.769531 -0.296875 5.75 -0.140625 C 5.738281 -0.0859375 5.722656 -0.0390625 5.703125 0 C 5.679688 0.03125 5.640625 0.046875 5.578125 0.046875 C 5.367188 0.046875 5.117188 0.0390625 4.828125 0.03125 C 4.535156 0.03125 4.222656 0.0234375 3.890625 0.015625 C 3.554688 0.015625 3.222656 0.0078125 2.890625 0 C 2.554688 0 2.242188 0 1.953125 0 C 1.796875 0 1.617188 0 1.421875 0 C 1.222656 0.0078125 1.035156 0.0195312 0.859375 0.03125 C 0.679688 0.0390625 0.554688 0.046875 0.484375 0.046875 Z M 0.484375 0.046875 "/></g></g></g><g fill="#1c306e" fill-opacity="1"><g transform="translate(124.8876, 260.00424)"><g><path d="M 0.8125 -4.421875 C 0.769531 -4.421875 0.738281 -4.453125 0.71875 -4.515625 C 0.707031 -4.578125 0.703125 -4.632812 0.703125 -4.6875 C 0.710938 -4.8125 0.710938 -4.925781 0.703125 -5.03125 C 0.703125 -5.132812 0.703125 -5.242188 0.703125 -5.359375 C 0.703125 -5.503906 0.695312 -5.648438 0.6875 -5.796875 C 0.675781 -5.953125 0.664062 -6.09375 0.65625 -6.21875 C 0.644531 -6.34375 0.640625 -6.4375 0.640625 -6.5 C 0.640625 -6.59375 0.664062 -6.675781 0.71875 -6.75 C 0.78125 -6.820312 0.84375 -6.878906 0.90625 -6.921875 C 1.019531 -6.992188 1.117188 -7.050781 1.203125 -7.09375 C 1.285156 -7.132812 1.382812 -7.15625 1.5 -7.15625 C 1.5625 -7.15625 1.613281 -7.117188 1.65625 -7.046875 C 1.695312 -6.972656 1.71875 -6.890625 1.71875 -6.796875 C 1.71875 -6.585938 1.675781 -6.347656 1.59375 -6.078125 C 1.519531 -5.804688 1.429688 -5.546875 1.328125 -5.296875 C 1.234375 -5.054688 1.148438 -4.863281 1.078125 -4.71875 C 1.046875 -4.644531 1 -4.578125 0.9375 -4.515625 C 0.882812 -4.453125 0.84375 -4.421875 0.8125 -4.421875 Z M 0.8125 -4.421875 "/></g></g></g><g fill="#1c306e" fill-opacity="1"><g transform="translate(130.073142, 260.00424)"><g><path d="M 0.25 0.046875 C 0.164062 0.046875 0.09375 0.0351562 0.03125 0.015625 C -0.0195312 -0.00390625 -0.046875 -0.046875 -0.046875 -0.109375 C -0.046875 -0.171875 -0.0195312 -0.21875 0.03125 -0.25 C 0.0820312 -0.289062 0.148438 -0.320312 0.234375 -0.34375 C 0.441406 -0.40625 0.617188 -0.492188 0.765625 -0.609375 C 0.921875 -0.722656 1.046875 -0.878906 1.140625 -1.078125 C 1.316406 -1.492188 1.484375 -1.890625 1.640625 -2.265625 C 1.796875 -2.648438 1.945312 -3.03125 2.09375 -3.40625 C 2.25 -3.789062 2.398438 -4.175781 2.546875 -4.5625 C 2.703125 -4.957031 2.851562 -5.375 3 -5.8125 C 3.082031 -6.03125 3.132812 -6.195312 3.15625 -6.3125 C 3.1875 -6.4375 3.210938 -6.523438 3.234375 -6.578125 C 3.335938 -6.609375 3.4375 -6.632812 3.53125 -6.65625 C 3.625 -6.6875 3.726562 -6.722656 3.84375 -6.765625 C 3.9375 -6.816406 4.019531 -6.878906 4.09375 -6.953125 C 4.164062 -7.035156 4.21875 -7.097656 4.25 -7.140625 C 4.269531 -7.148438 4.289062 -7.15625 4.3125 -7.15625 C 4.332031 -7.164062 4.351562 -7.15625 4.375 -7.125 C 4.394531 -7.082031 4.410156 -7.039062 4.421875 -7 C 4.441406 -6.957031 4.457031 -6.910156 4.46875 -6.859375 C 4.625 -6.359375 4.78125 -5.851562 4.9375 -5.34375 C 5.101562 -4.832031 5.265625 -4.332031 5.421875 -3.84375 C 5.585938 -3.351562 5.742188 -2.878906 5.890625 -2.421875 C 6.046875 -1.972656 6.1875 -1.554688 6.3125 -1.171875 C 6.382812 -0.984375 6.46875 -0.832031 6.5625 -0.71875 C 6.65625 -0.613281 6.757812 -0.53125 6.875 -0.46875 C 6.988281 -0.40625 7.113281 -0.359375 7.25 -0.328125 C 7.34375 -0.304688 7.414062 -0.273438 7.46875 -0.234375 C 7.519531 -0.203125 7.546875 -0.15625 7.546875 -0.09375 C 7.546875 -0.0507812 7.519531 -0.0195312 7.46875 0 C 7.425781 0.0195312 7.367188 0.03125 7.296875 0.03125 C 7.171875 0.03125 7.007812 0.0234375 6.8125 0.015625 C 6.625 0.015625 6.425781 0.0078125 6.21875 0 C 6.019531 -0.0078125 5.835938 -0.015625 5.671875 -0.015625 C 5.535156 -0.015625 5.378906 -0.0078125 5.203125 0 C 5.035156 0 4.863281 0 4.6875 0 C 4.519531 0.0078125 4.378906 0.015625 4.265625 0.015625 C 4.191406 0.015625 4.128906 0.00390625 4.078125 -0.015625 C 4.023438 -0.0351562 4 -0.0703125 4 -0.125 C 4 -0.175781 4.023438 -0.222656 4.078125 -0.265625 C 4.140625 -0.304688 4.207031 -0.332031 4.28125 -0.34375 C 4.53125 -0.382812 4.710938 -0.445312 4.828125 -0.53125 C 4.941406 -0.625 4.984375 -0.753906 4.953125 -0.921875 C 4.929688 -1.046875 4.898438 -1.1875 4.859375 -1.34375 C 4.816406 -1.507812 4.769531 -1.679688 4.71875 -1.859375 C 4.675781 -2.046875 4.628906 -2.210938 4.578125 -2.359375 C 4.566406 -2.410156 4.546875 -2.445312 4.515625 -2.46875 C 4.492188 -2.5 4.441406 -2.515625 4.359375 -2.515625 L 2.46875 -2.515625 C 2.414062 -2.515625 2.375 -2.5 2.34375 -2.46875 C 2.320312 -2.4375 2.304688 -2.390625 2.296875 -2.328125 C 2.265625 -2.234375 2.226562 -2.128906 2.1875 -2.015625 C 2.15625 -1.898438 2.117188 -1.78125 2.078125 -1.65625 C 2.035156 -1.53125 2 -1.414062 1.96875 -1.3125 C 1.9375 -1.207031 1.914062 -1.117188 1.90625 -1.046875 C 1.863281 -0.847656 1.894531 -0.695312 2 -0.59375 C 2.101562 -0.488281 2.28125 -0.40625 2.53125 -0.34375 C 2.71875 -0.289062 2.8125 -0.210938 2.8125 -0.109375 C 2.8125 -0.0664062 2.789062 -0.0351562 2.75 -0.015625 C 2.707031 0.00390625 2.644531 0.015625 2.5625 0.015625 C 2.394531 0.015625 2.222656 0.0078125 2.046875 0 C 1.867188 -0.0078125 1.675781 -0.015625 1.46875 -0.015625 C 1.257812 -0.015625 1.054688 -0.00390625 0.859375 0.015625 C 0.660156 0.0351562 0.457031 0.046875 0.25 0.046875 Z M 2.75 -3 L 4.21875 -3 C 4.3125 -3 4.359375 -3.019531 4.359375 -3.0625 C 4.359375 -3.082031 4.359375 -3.097656 4.359375 -3.109375 C 4.359375 -3.128906 4.351562 -3.148438 4.34375 -3.171875 L 3.609375 -5.609375 C 3.578125 -5.703125 3.550781 -5.75 3.53125 -5.75 C 3.519531 -5.75 3.492188 -5.703125 3.453125 -5.609375 L 2.578125 -3.171875 C 2.566406 -3.140625 2.5625 -3.113281 2.5625 -3.09375 C 2.5625 -3.050781 2.578125 -3.023438 2.609375 -3.015625 C 2.648438 -3.003906 2.695312 -3 2.75 -3 Z M 2.75 -3 "/></g></g></g><g fill="#1c306e" fill-opacity="1"><g transform="translate(140.367397, 260.00424)"><g><path d="M 6.75 0.21875 C 6.445312 0.21875 6.179688 0.179688 5.953125 0.109375 C 5.734375 0.046875 5.539062 -0.046875 5.375 -0.171875 C 5.21875 -0.296875 5.070312 -0.441406 4.9375 -0.609375 C 4.789062 -0.816406 4.640625 -1.019531 4.484375 -1.21875 C 4.335938 -1.425781 4.1875 -1.648438 4.03125 -1.890625 C 3.882812 -2.128906 3.722656 -2.414062 3.546875 -2.75 C 3.453125 -2.914062 3.335938 -3.035156 3.203125 -3.109375 C 3.109375 -3.160156 3.015625 -3.195312 2.921875 -3.21875 C 2.828125 -3.238281 2.75 -3.25 2.6875 -3.25 C 2.644531 -3.257812 2.613281 -3.242188 2.59375 -3.203125 C 2.570312 -3.160156 2.5625 -3.101562 2.5625 -3.03125 L 2.5625 -1.078125 C 2.5625 -0.859375 2.617188 -0.691406 2.734375 -0.578125 C 2.847656 -0.460938 3.046875 -0.375 3.328125 -0.3125 C 3.410156 -0.289062 3.472656 -0.265625 3.515625 -0.234375 C 3.554688 -0.203125 3.578125 -0.160156 3.578125 -0.109375 C 3.578125 -0.0546875 3.554688 -0.0195312 3.515625 0 C 3.484375 0.0195312 3.429688 0.03125 3.359375 0.03125 C 3.191406 0.03125 3.023438 0.0234375 2.859375 0.015625 C 2.691406 0.00390625 2.53125 0 2.375 0 C 2.21875 -0.0078125 2.066406 -0.015625 1.921875 -0.015625 C 1.765625 -0.015625 1.601562 -0.0078125 1.4375 0 C 1.28125 0 1.113281 0.00390625 0.9375 0.015625 C 0.769531 0.0351562 0.601562 0.046875 0.4375 0.046875 C 0.375 0.046875 0.316406 0.03125 0.265625 0 C 0.222656 -0.0195312 0.203125 -0.0507812 0.203125 -0.09375 C 0.203125 -0.195312 0.289062 -0.269531 0.46875 -0.3125 C 0.726562 -0.363281 0.914062 -0.4375 1.03125 -0.53125 C 1.144531 -0.632812 1.203125 -0.800781 1.203125 -1.03125 L 1.203125 -5.671875 C 1.203125 -5.878906 1.1875 -6.035156 1.15625 -6.140625 C 1.125 -6.253906 1.0625 -6.335938 0.96875 -6.390625 C 0.875 -6.453125 0.738281 -6.492188 0.5625 -6.515625 C 0.457031 -6.535156 0.382812 -6.566406 0.34375 -6.609375 C 0.300781 -6.648438 0.28125 -6.691406 0.28125 -6.734375 C 0.28125 -6.773438 0.300781 -6.804688 0.34375 -6.828125 C 0.394531 -6.859375 0.457031 -6.875 0.53125 -6.875 C 0.75 -6.875 0.921875 -6.867188 1.046875 -6.859375 C 1.171875 -6.859375 1.289062 -6.851562 1.40625 -6.84375 C 1.519531 -6.832031 1.65625 -6.828125 1.8125 -6.828125 C 1.96875 -6.828125 2.101562 -6.832031 2.21875 -6.84375 C 2.34375 -6.851562 2.476562 -6.863281 2.625 -6.875 C 2.769531 -6.894531 2.960938 -6.90625 3.203125 -6.90625 C 4.003906 -6.90625 4.617188 -6.765625 5.046875 -6.484375 C 5.472656 -6.203125 5.6875 -5.773438 5.6875 -5.203125 C 5.6875 -4.890625 5.617188 -4.617188 5.484375 -4.390625 C 5.359375 -4.171875 5.191406 -3.992188 4.984375 -3.859375 C 4.785156 -3.722656 4.582031 -3.613281 4.375 -3.53125 C 4.34375 -3.519531 4.328125 -3.5 4.328125 -3.46875 C 4.335938 -3.445312 4.351562 -3.425781 4.375 -3.40625 C 4.582031 -3.082031 4.785156 -2.773438 4.984375 -2.484375 C 5.191406 -2.191406 5.40625 -1.914062 5.625 -1.65625 C 5.84375 -1.394531 6.082031 -1.148438 6.34375 -0.921875 C 6.5625 -0.710938 6.78125 -0.585938 7 -0.546875 C 7.226562 -0.515625 7.46875 -0.5 7.71875 -0.5 C 7.820312 -0.5 7.875 -0.445312 7.875 -0.34375 C 7.875 -0.195312 7.820312 -0.0820312 7.71875 0 C 7.613281 0.0703125 7.472656 0.125 7.296875 0.15625 C 7.128906 0.195312 6.945312 0.21875 6.75 0.21875 Z M 3 -3.546875 C 3.289062 -3.546875 3.53125 -3.609375 3.71875 -3.734375 C 3.914062 -3.867188 4.066406 -4.046875 4.171875 -4.265625 C 4.273438 -4.484375 4.328125 -4.726562 4.328125 -5 C 4.328125 -5.3125 4.285156 -5.578125 4.203125 -5.796875 C 4.128906 -6.015625 4 -6.1875 3.8125 -6.3125 C 3.625 -6.4375 3.367188 -6.5 3.046875 -6.5 C 2.867188 -6.5 2.742188 -6.429688 2.671875 -6.296875 C 2.609375 -6.171875 2.570312 -5.910156 2.5625 -5.515625 C 2.5625 -5.359375 2.5625 -5.144531 2.5625 -4.875 C 2.5625 -4.613281 2.5625 -4.300781 2.5625 -3.9375 C 2.5625 -3.789062 2.597656 -3.6875 2.671875 -3.625 C 2.753906 -3.570312 2.863281 -3.546875 3 -3.546875 Z M 3 -3.546875 "/></g></g></g><g fill="#1c306e" fill-opacity="1"><g transform="translate(151.008531, 260.00424)"><g><path d="M 2.203125 0.046875 C 2.128906 0.046875 2.066406 0.03125 2.015625 0 C 1.960938 -0.0195312 1.9375 -0.0507812 1.9375 -0.09375 C 1.9375 -0.144531 1.957031 -0.1875 2 -0.21875 C 2.050781 -0.257812 2.125 -0.289062 2.21875 -0.3125 C 2.488281 -0.363281 2.6875 -0.4375 2.8125 -0.53125 C 2.9375 -0.632812 3 -0.804688 3 -1.046875 L 3 -5.296875 C 3 -5.585938 2.988281 -5.804688 2.96875 -5.953125 C 2.957031 -6.097656 2.9375 -6.195312 2.90625 -6.25 C 2.882812 -6.300781 2.851562 -6.332031 2.8125 -6.34375 C 2.738281 -6.375 2.648438 -6.390625 2.546875 -6.390625 C 2.441406 -6.398438 2.335938 -6.40625 2.234375 -6.40625 L 1.90625 -6.40625 C 1.707031 -6.40625 1.515625 -6.359375 1.328125 -6.265625 C 1.140625 -6.171875 0.992188 -6.039062 0.890625 -5.875 C 0.859375 -5.832031 0.8125 -5.769531 0.75 -5.6875 C 0.6875 -5.613281 0.625 -5.546875 0.5625 -5.484375 C 0.5 -5.421875 0.429688 -5.390625 0.359375 -5.390625 C 0.304688 -5.390625 0.269531 -5.40625 0.25 -5.4375 C 0.238281 -5.476562 0.234375 -5.519531 0.234375 -5.5625 C 0.234375 -5.644531 0.253906 -5.726562 0.296875 -5.8125 C 0.410156 -6.050781 0.5 -6.257812 0.5625 -6.4375 C 0.625 -6.613281 0.664062 -6.828125 0.6875 -7.078125 C 0.695312 -7.179688 0.722656 -7.25 0.765625 -7.28125 C 0.816406 -7.3125 0.867188 -7.328125 0.921875 -7.328125 C 0.960938 -7.328125 1.007812 -7.28125 1.0625 -7.1875 C 1.125 -7.101562 1.179688 -7.035156 1.234375 -6.984375 C 1.296875 -6.921875 1.40625 -6.875 1.5625 -6.84375 C 1.726562 -6.8125 1.867188 -6.796875 1.984375 -6.796875 L 5.859375 -6.796875 C 6.054688 -6.796875 6.21875 -6.8125 6.34375 -6.84375 C 6.476562 -6.875 6.585938 -6.910156 6.671875 -6.953125 C 6.773438 -7.015625 6.859375 -7.078125 6.921875 -7.140625 C 6.984375 -7.210938 7.054688 -7.25 7.140625 -7.25 C 7.171875 -7.25 7.195312 -7.226562 7.21875 -7.1875 C 7.238281 -7.144531 7.25 -7.097656 7.25 -7.046875 C 7.25 -7.015625 7.242188 -6.972656 7.234375 -6.921875 C 7.222656 -6.878906 7.21875 -6.835938 7.21875 -6.796875 C 7.1875 -6.671875 7.15625 -6.554688 7.125 -6.453125 C 7.101562 -6.347656 7.082031 -6.25 7.0625 -6.15625 C 7.039062 -6.070312 7.03125 -5.976562 7.03125 -5.875 L 7.03125 -5.6875 C 7.03125 -5.59375 7.015625 -5.507812 6.984375 -5.4375 C 6.960938 -5.363281 6.921875 -5.328125 6.859375 -5.328125 C 6.796875 -5.328125 6.742188 -5.359375 6.703125 -5.421875 C 6.671875 -5.492188 6.632812 -5.597656 6.59375 -5.734375 C 6.53125 -5.960938 6.425781 -6.128906 6.28125 -6.234375 C 6.132812 -6.347656 5.898438 -6.40625 5.578125 -6.40625 L 4.875 -6.40625 C 4.738281 -6.40625 4.632812 -6.378906 4.5625 -6.328125 C 4.488281 -6.273438 4.4375 -6.164062 4.40625 -6 C 4.375 -5.84375 4.359375 -5.59375 4.359375 -5.25 L 4.359375 -1.046875 C 4.359375 -0.828125 4.421875 -0.664062 4.546875 -0.5625 C 4.671875 -0.457031 4.867188 -0.375 5.140625 -0.3125 C 5.222656 -0.28125 5.289062 -0.25 5.34375 -0.21875 C 5.394531 -0.195312 5.421875 -0.160156 5.421875 -0.109375 C 5.421875 -0.0546875 5.394531 -0.0195312 5.34375 0 C 5.300781 0.0195312 5.242188 0.03125 5.171875 0.03125 C 5.003906 0.03125 4.835938 0.0234375 4.671875 0.015625 C 4.503906 0.015625 4.335938 0.0078125 4.171875 0 C 4.003906 -0.0078125 3.84375 -0.015625 3.6875 -0.015625 C 3.53125 -0.015625 3.367188 -0.0078125 3.203125 0 C 3.046875 0.0078125 2.878906 0.0195312 2.703125 0.03125 C 2.535156 0.0390625 2.367188 0.046875 2.203125 0.046875 Z M 2.203125 0.046875 "/></g></g></g><g fill="#1c306e" fill-opacity="1"><g transform="translate(161.050497, 260.00424)"><g/></g></g><g fill="#1c306e" fill-opacity="1"><g transform="translate(166.236038, 260.00424)"><g><path d="M 3.984375 0.078125 C 3.796875 0.078125 3.566406 0.0664062 3.296875 0.046875 C 3.035156 0.0351562 2.769531 0.0234375 2.5 0.015625 C 2.226562 0.00390625 2.003906 0 1.828125 0 C 1.691406 0 1.550781 0 1.40625 0 C 1.257812 0.0078125 1.109375 0.0195312 0.953125 0.03125 C 0.796875 0.0390625 0.632812 0.046875 0.46875 0.046875 C 0.40625 0.046875 0.347656 0.03125 0.296875 0 C 0.242188 -0.0195312 0.21875 -0.0546875 0.21875 -0.109375 C 0.21875 -0.171875 0.238281 -0.210938 0.28125 -0.234375 C 0.332031 -0.265625 0.40625 -0.289062 0.5 -0.3125 C 0.757812 -0.363281 0.9375 -0.4375 1.03125 -0.53125 C 1.132812 -0.632812 1.1875 -0.800781 1.1875 -1.03125 L 1.1875 -5.78125 C 1.1875 -6.019531 1.140625 -6.1875 1.046875 -6.28125 C 0.953125 -6.382812 0.769531 -6.460938 0.5 -6.515625 C 0.40625 -6.535156 0.332031 -6.5625 0.28125 -6.59375 C 0.238281 -6.625 0.21875 -6.671875 0.21875 -6.734375 C 0.21875 -6.773438 0.242188 -6.804688 0.296875 -6.828125 C 0.347656 -6.859375 0.40625 -6.875 0.46875 -6.875 C 0.632812 -6.875 0.789062 -6.867188 0.9375 -6.859375 C 1.09375 -6.859375 1.242188 -6.851562 1.390625 -6.84375 C 1.546875 -6.832031 1.703125 -6.828125 1.859375 -6.828125 C 1.960938 -6.828125 2.101562 -6.832031 2.28125 -6.84375 C 2.46875 -6.851562 2.660156 -6.863281 2.859375 -6.875 C 3.066406 -6.882812 3.257812 -6.894531 3.4375 -6.90625 C 3.625 -6.925781 3.773438 -6.9375 3.890625 -6.9375 C 4.484375 -6.9375 5.015625 -6.847656 5.484375 -6.671875 C 5.953125 -6.503906 6.351562 -6.269531 6.6875 -5.96875 C 7.019531 -5.664062 7.269531 -5.304688 7.4375 -4.890625 C 7.613281 -4.484375 7.703125 -4.035156 7.703125 -3.546875 C 7.703125 -3.066406 7.613281 -2.609375 7.4375 -2.171875 C 7.269531 -1.742188 7.019531 -1.359375 6.6875 -1.015625 C 6.363281 -0.679688 5.972656 -0.414062 5.515625 -0.21875 C 5.054688 -0.0195312 4.546875 0.078125 3.984375 0.078125 Z M 3.828125 -0.40625 C 4.328125 -0.40625 4.753906 -0.523438 5.109375 -0.765625 C 5.460938 -1.015625 5.726562 -1.359375 5.90625 -1.796875 C 6.09375 -2.234375 6.1875 -2.738281 6.1875 -3.3125 C 6.1875 -3.789062 6.125 -4.222656 6 -4.609375 C 5.882812 -4.992188 5.710938 -5.320312 5.484375 -5.59375 C 5.265625 -5.863281 5.003906 -6.070312 4.703125 -6.21875 C 4.398438 -6.375 4.070312 -6.453125 3.71875 -6.453125 C 3.457031 -6.453125 3.238281 -6.441406 3.0625 -6.421875 C 2.894531 -6.410156 2.769531 -6.367188 2.6875 -6.296875 C 2.601562 -6.234375 2.5625 -6.125 2.5625 -5.96875 L 2.5625 -1.34375 C 2.5625 -1.101562 2.613281 -0.910156 2.71875 -0.765625 C 2.820312 -0.628906 2.96875 -0.535156 3.15625 -0.484375 C 3.351562 -0.429688 3.578125 -0.40625 3.828125 -0.40625 Z M 3.828125 -0.40625 "/></g></g></g><g fill="#1c306e" fill-opacity="1"><g transform="translate(177.066388, 260.00424)"><g><path d="M 0.8125 -4.421875 C 0.769531 -4.421875 0.738281 -4.453125 0.71875 -4.515625 C 0.707031 -4.578125 0.703125 -4.632812 0.703125 -4.6875 C 0.710938 -4.8125 0.710938 -4.925781 0.703125 -5.03125 C 0.703125 -5.132812 0.703125 -5.242188 0.703125 -5.359375 C 0.703125 -5.503906 0.695312 -5.648438 0.6875 -5.796875 C 0.675781 -5.953125 0.664062 -6.09375 0.65625 -6.21875 C 0.644531 -6.34375 0.640625 -6.4375 0.640625 -6.5 C 0.640625 -6.59375 0.664062 -6.675781 0.71875 -6.75 C 0.78125 -6.820312 0.84375 -6.878906 0.90625 -6.921875 C 1.019531 -6.992188 1.117188 -7.050781 1.203125 -7.09375 C 1.285156 -7.132812 1.382812 -7.15625 1.5 -7.15625 C 1.5625 -7.15625 1.613281 -7.117188 1.65625 -7.046875 C 1.695312 -6.972656 1.71875 -6.890625 1.71875 -6.796875 C 1.71875 -6.585938 1.675781 -6.347656 1.59375 -6.078125 C 1.519531 -5.804688 1.429688 -5.546875 1.328125 -5.296875 C 1.234375 -5.054688 1.148438 -4.863281 1.078125 -4.71875 C 1.046875 -4.644531 1 -4.578125 0.9375 -4.515625 C 0.882812 -4.453125 0.84375 -4.421875 0.8125 -4.421875 Z M 0.8125 -4.421875 "/></g></g></g><g fill="#1c306e" fill-opacity="1"><g transform="translate(182.251929, 260.00424)"><g><path d="M 0.515625 0.046875 C 0.441406 0.046875 0.378906 0.03125 0.328125 0 C 0.285156 -0.0195312 0.265625 -0.0507812 0.265625 -0.09375 C 0.265625 -0.1875 0.351562 -0.253906 0.53125 -0.296875 C 0.789062 -0.359375 0.972656 -0.4375 1.078125 -0.53125 C 1.179688 -0.625 1.234375 -0.785156 1.234375 -1.015625 L 1.234375 -5.78125 C 1.234375 -6.019531 1.1875 -6.1875 1.09375 -6.28125 C 1 -6.382812 0.820312 -6.460938 0.5625 -6.515625 C 0.46875 -6.535156 0.398438 -6.566406 0.359375 -6.609375 C 0.316406 -6.648438 0.296875 -6.691406 0.296875 -6.734375 C 0.296875 -6.773438 0.316406 -6.804688 0.359375 -6.828125 C 0.410156 -6.859375 0.472656 -6.875 0.546875 -6.875 C 0.753906 -6.875 0.945312 -6.867188 1.125 -6.859375 C 1.3125 -6.859375 1.492188 -6.851562 1.671875 -6.84375 C 1.847656 -6.832031 2.03125 -6.828125 2.21875 -6.828125 C 2.539062 -6.828125 2.878906 -6.832031 3.234375 -6.84375 C 3.597656 -6.851562 3.925781 -6.859375 4.21875 -6.859375 C 4.445312 -6.859375 4.632812 -6.863281 4.78125 -6.875 C 4.9375 -6.894531 5.03125 -6.90625 5.0625 -6.90625 C 5.101562 -6.90625 5.148438 -6.894531 5.203125 -6.875 C 5.265625 -6.851562 5.296875 -6.8125 5.296875 -6.75 C 5.328125 -6.519531 5.363281 -6.289062 5.40625 -6.0625 C 5.445312 -5.84375 5.46875 -5.648438 5.46875 -5.484375 C 5.46875 -5.421875 5.453125 -5.375 5.421875 -5.34375 C 5.390625 -5.3125 5.359375 -5.296875 5.328125 -5.296875 C 5.285156 -5.296875 5.25 -5.304688 5.21875 -5.328125 C 5.195312 -5.347656 5.175781 -5.382812 5.15625 -5.4375 C 5.09375 -5.59375 5.035156 -5.726562 4.984375 -5.84375 C 4.941406 -5.96875 4.890625 -6.0625 4.828125 -6.125 C 4.734375 -6.226562 4.625 -6.304688 4.5 -6.359375 C 4.382812 -6.421875 4.242188 -6.453125 4.078125 -6.453125 L 3.109375 -6.453125 C 2.972656 -6.453125 2.851562 -6.410156 2.75 -6.328125 C 2.644531 -6.253906 2.59375 -6.15625 2.59375 -6.03125 L 2.59375 -3.96875 C 2.59375 -3.882812 2.613281 -3.820312 2.65625 -3.78125 C 2.707031 -3.738281 2.765625 -3.71875 2.828125 -3.71875 L 3.796875 -3.71875 C 3.984375 -3.71875 4.117188 -3.769531 4.203125 -3.875 C 4.285156 -3.976562 4.351562 -4.125 4.40625 -4.3125 C 4.457031 -4.445312 4.523438 -4.515625 4.609375 -4.515625 C 4.640625 -4.515625 4.671875 -4.492188 4.703125 -4.453125 C 4.734375 -4.421875 4.75 -4.375 4.75 -4.3125 C 4.738281 -4.238281 4.726562 -4.148438 4.71875 -4.046875 C 4.71875 -3.953125 4.710938 -3.859375 4.703125 -3.765625 C 4.703125 -3.671875 4.703125 -3.582031 4.703125 -3.5 C 4.703125 -3.414062 4.703125 -3.320312 4.703125 -3.21875 C 4.710938 -3.113281 4.71875 -3.007812 4.71875 -2.90625 C 4.71875 -2.800781 4.722656 -2.71875 4.734375 -2.65625 C 4.742188 -2.570312 4.738281 -2.507812 4.71875 -2.46875 C 4.695312 -2.425781 4.664062 -2.40625 4.625 -2.40625 C 4.507812 -2.40625 4.429688 -2.503906 4.390625 -2.703125 C 4.328125 -2.898438 4.253906 -3.046875 4.171875 -3.140625 C 4.097656 -3.242188 4 -3.296875 3.875 -3.296875 L 2.875 -3.296875 C 2.789062 -3.296875 2.722656 -3.273438 2.671875 -3.234375 C 2.617188 -3.203125 2.59375 -3.132812 2.59375 -3.03125 L 2.59375 -1.046875 C 2.59375 -0.804688 2.640625 -0.640625 2.734375 -0.546875 C 2.835938 -0.460938 2.992188 -0.421875 3.203125 -0.421875 L 4.0625 -0.421875 C 4.238281 -0.421875 4.394531 -0.4375 4.53125 -0.46875 C 4.675781 -0.507812 4.800781 -0.566406 4.90625 -0.640625 C 5.03125 -0.722656 5.140625 -0.835938 5.234375 -0.984375 C 5.328125 -1.128906 5.421875 -1.289062 5.515625 -1.46875 C 5.535156 -1.519531 5.5625 -1.550781 5.59375 -1.5625 C 5.625 -1.582031 5.660156 -1.59375 5.703125 -1.59375 C 5.734375 -1.59375 5.753906 -1.570312 5.765625 -1.53125 C 5.785156 -1.5 5.796875 -1.460938 5.796875 -1.421875 C 5.796875 -1.316406 5.78125 -1.1875 5.75 -1.03125 C 5.71875 -0.882812 5.675781 -0.726562 5.625 -0.5625 C 5.570312 -0.394531 5.523438 -0.242188 5.484375 -0.109375 C 5.460938 -0.0546875 5.429688 -0.0195312 5.390625 0 C 5.359375 0.03125 5.316406 0.046875 5.265625 0.046875 C 5.097656 0.046875 4.882812 0.0390625 4.625 0.03125 C 4.363281 0.03125 4.078125 0.0234375 3.765625 0.015625 C 3.453125 0.015625 3.132812 0.0078125 2.8125 0 C 2.488281 0 2.179688 0 1.890625 0 C 1.742188 0 1.59375 0 1.4375 0 C 1.289062 0.0078125 1.140625 0.0195312 0.984375 0.03125 C 0.828125 0.0390625 0.671875 0.046875 0.515625 0.046875 Z M 0.515625 0.046875 "/></g></g></g><g fill="#1c306e" fill-opacity="1"><g transform="translate(191.074528, 260.00424)"><g><path d="M 0.46875 0.046875 C 0.382812 0.046875 0.316406 0.03125 0.265625 0 C 0.222656 -0.0195312 0.203125 -0.0507812 0.203125 -0.09375 C 0.203125 -0.144531 0.234375 -0.179688 0.296875 -0.203125 C 0.359375 -0.234375 0.429688 -0.257812 0.515625 -0.28125 C 0.679688 -0.332031 0.820312 -0.425781 0.9375 -0.5625 C 1.0625 -0.707031 1.140625 -0.890625 1.171875 -1.109375 C 1.222656 -1.535156 1.273438 -2 1.328125 -2.5 C 1.378906 -3.007812 1.425781 -3.519531 1.46875 -4.03125 C 1.519531 -4.550781 1.5625 -5.035156 1.59375 -5.484375 C 1.59375 -5.523438 1.59375 -5.578125 1.59375 -5.640625 C 1.59375 -5.703125 1.59375 -5.769531 1.59375 -5.84375 C 1.582031 -5.945312 1.5625 -6.03125 1.53125 -6.09375 C 1.5 -6.15625 1.441406 -6.21875 1.359375 -6.28125 C 1.265625 -6.351562 1.164062 -6.40625 1.0625 -6.4375 C 0.957031 -6.476562 0.835938 -6.515625 0.703125 -6.546875 C 0.628906 -6.554688 0.566406 -6.578125 0.515625 -6.609375 C 0.472656 -6.648438 0.453125 -6.703125 0.453125 -6.765625 C 0.453125 -6.816406 0.476562 -6.851562 0.53125 -6.875 C 0.59375 -6.894531 0.664062 -6.90625 0.75 -6.90625 C 0.84375 -6.90625 0.96875 -6.898438 1.125 -6.890625 C 1.28125 -6.890625 1.445312 -6.882812 1.625 -6.875 C 1.800781 -6.863281 1.976562 -6.851562 2.15625 -6.84375 C 2.332031 -6.832031 2.488281 -6.828125 2.625 -6.828125 C 2.675781 -6.828125 2.722656 -6.8125 2.765625 -6.78125 C 2.804688 -6.75 2.832031 -6.707031 2.84375 -6.65625 C 2.882812 -6.519531 2.925781 -6.390625 2.96875 -6.265625 C 3.007812 -6.140625 3.054688 -6.007812 3.109375 -5.875 L 4.6875 -2.015625 C 4.707031 -1.972656 4.734375 -1.953125 4.765625 -1.953125 C 4.804688 -1.953125 4.832031 -1.96875 4.84375 -2 L 6.546875 -5.765625 C 6.585938 -5.960938 6.625 -6.140625 6.65625 -6.296875 C 6.6875 -6.453125 6.71875 -6.578125 6.75 -6.671875 C 6.769531 -6.753906 6.816406 -6.796875 6.890625 -6.796875 L 7.3125 -6.796875 C 7.582031 -6.816406 7.863281 -6.835938 8.15625 -6.859375 C 8.457031 -6.890625 8.6875 -6.90625 8.84375 -6.90625 C 8.894531 -6.90625 8.945312 -6.894531 9 -6.875 C 9.050781 -6.863281 9.078125 -6.828125 9.078125 -6.765625 C 9.078125 -6.710938 9.054688 -6.671875 9.015625 -6.640625 C 8.972656 -6.617188 8.910156 -6.585938 8.828125 -6.546875 C 8.773438 -6.535156 8.707031 -6.515625 8.625 -6.484375 C 8.550781 -6.453125 8.488281 -6.421875 8.4375 -6.390625 C 8.289062 -6.328125 8.175781 -6.242188 8.09375 -6.140625 C 8.019531 -6.046875 7.988281 -5.910156 8 -5.734375 C 8.007812 -5.234375 8.023438 -4.785156 8.046875 -4.390625 C 8.066406 -3.992188 8.082031 -3.617188 8.09375 -3.265625 C 8.113281 -2.921875 8.140625 -2.566406 8.171875 -2.203125 C 8.203125 -1.847656 8.226562 -1.453125 8.25 -1.015625 C 8.257812 -0.816406 8.332031 -0.660156 8.46875 -0.546875 C 8.601562 -0.441406 8.785156 -0.363281 9.015625 -0.3125 C 9.109375 -0.28125 9.179688 -0.25 9.234375 -0.21875 C 9.285156 -0.195312 9.3125 -0.160156 9.3125 -0.109375 C 9.3125 -0.0546875 9.285156 -0.0195312 9.234375 0 C 9.191406 0.0195312 9.128906 0.03125 9.046875 0.03125 C 8.890625 0.03125 8.722656 0.0234375 8.546875 0.015625 C 8.367188 0.015625 8.195312 0.0078125 8.03125 0 C 7.875 -0.0078125 7.722656 -0.015625 7.578125 -0.015625 C 7.429688 -0.015625 7.285156 -0.0078125 7.140625 0 C 6.992188 0.0078125 6.84375 0.0195312 6.6875 0.03125 C 6.53125 0.0390625 6.367188 0.046875 6.203125 0.046875 C 6.128906 0.046875 6.066406 0.03125 6.015625 0 C 5.960938 -0.0195312 5.9375 -0.0507812 5.9375 -0.09375 C 5.9375 -0.144531 5.960938 -0.1875 6.015625 -0.21875 C 6.066406 -0.257812 6.132812 -0.289062 6.21875 -0.3125 C 6.457031 -0.351562 6.625 -0.421875 6.71875 -0.515625 C 6.8125 -0.617188 6.851562 -0.785156 6.84375 -1.015625 C 6.832031 -1.472656 6.820312 -1.910156 6.8125 -2.328125 C 6.800781 -2.753906 6.785156 -3.171875 6.765625 -3.578125 C 6.753906 -3.992188 6.738281 -4.414062 6.71875 -4.84375 C 6.707031 -4.894531 6.691406 -4.914062 6.671875 -4.90625 C 6.648438 -4.90625 6.625 -4.878906 6.59375 -4.828125 L 4.453125 0.015625 C 4.421875 0.0859375 4.375 0.117188 4.3125 0.109375 C 4.25 0.0976562 4.207031 0.0664062 4.1875 0.015625 C 3.863281 -0.796875 3.523438 -1.597656 3.171875 -2.390625 C 2.816406 -3.191406 2.46875 -4.003906 2.125 -4.828125 C 2.101562 -4.878906 2.070312 -4.898438 2.03125 -4.890625 C 2 -4.878906 1.976562 -4.84375 1.96875 -4.78125 C 1.925781 -4.382812 1.890625 -3.976562 1.859375 -3.5625 C 1.835938 -3.144531 1.820312 -2.726562 1.8125 -2.3125 C 1.8125 -1.894531 1.8125 -1.484375 1.8125 -1.078125 C 1.8125 -0.890625 1.867188 -0.726562 1.984375 -0.59375 C 2.109375 -0.46875 2.300781 -0.375 2.5625 -0.3125 C 2.644531 -0.289062 2.710938 -0.265625 2.765625 -0.234375 C 2.828125 -0.203125 2.859375 -0.160156 2.859375 -0.109375 C 2.859375 -0.0546875 2.828125 -0.0195312 2.765625 0 C 2.710938 0.0195312 2.65625 0.03125 2.59375 0.03125 C 2.394531 0.03125 2.25 0.0234375 2.15625 0.015625 C 2.0625 0.015625 1.96875 0.0078125 1.875 0 C 1.789062 -0.0078125 1.679688 -0.015625 1.546875 -0.015625 C 1.398438 -0.015625 1.257812 -0.0078125 1.125 0 C 1 0.0078125 0.878906 0.0195312 0.765625 0.03125 C 0.648438 0.0390625 0.550781 0.046875 0.46875 0.046875 Z M 0.46875 0.046875 "/></g></g></g><g fill="#1c306e" fill-opacity="1"><g transform="translate(203.481645, 260.00424)"><g><path d="M 0.4375 0.046875 C 0.351562 0.046875 0.285156 0.03125 0.234375 0 C 0.191406 -0.0195312 0.171875 -0.0507812 0.171875 -0.09375 C 0.171875 -0.1875 0.265625 -0.253906 0.453125 -0.296875 C 0.691406 -0.359375 0.867188 -0.4375 0.984375 -0.53125 C 1.109375 -0.625 1.171875 -0.785156 1.171875 -1.015625 L 1.171875 -5.78125 C 1.171875 -6.019531 1.125 -6.191406 1.03125 -6.296875 C 0.9375 -6.398438 0.757812 -6.472656 0.5 -6.515625 C 0.40625 -6.535156 0.335938 -6.566406 0.296875 -6.609375 C 0.253906 -6.648438 0.234375 -6.691406 0.234375 -6.734375 C 0.234375 -6.773438 0.253906 -6.804688 0.296875 -6.828125 C 0.347656 -6.859375 0.410156 -6.875 0.484375 -6.875 C 0.691406 -6.875 0.863281 -6.867188 1 -6.859375 C 1.132812 -6.859375 1.257812 -6.851562 1.375 -6.84375 C 1.5 -6.832031 1.640625 -6.828125 1.796875 -6.828125 C 1.953125 -6.828125 2.085938 -6.832031 2.203125 -6.84375 C 2.328125 -6.851562 2.460938 -6.863281 2.609375 -6.875 C 2.765625 -6.894531 2.957031 -6.90625 3.1875 -6.90625 C 4.007812 -6.90625 4.632812 -6.785156 5.0625 -6.546875 C 5.488281 -6.316406 5.703125 -5.914062 5.703125 -5.34375 C 5.703125 -5.113281 5.65625 -4.90625 5.5625 -4.71875 C 5.46875 -4.53125 5.351562 -4.382812 5.21875 -4.28125 C 5.113281 -4.175781 5.003906 -4.09375 4.890625 -4.03125 C 4.773438 -3.96875 4.640625 -3.910156 4.484375 -3.859375 C 4.453125 -3.847656 4.4375 -3.828125 4.4375 -3.796875 C 4.4375 -3.773438 4.453125 -3.757812 4.484375 -3.75 C 4.660156 -3.707031 4.835938 -3.648438 5.015625 -3.578125 C 5.203125 -3.515625 5.378906 -3.421875 5.546875 -3.296875 C 5.710938 -3.171875 5.84375 -3.003906 5.9375 -2.796875 C 6.039062 -2.597656 6.09375 -2.347656 6.09375 -2.046875 C 6.09375 -1.648438 6.03125 -1.335938 5.90625 -1.109375 C 5.789062 -0.878906 5.644531 -0.703125 5.46875 -0.578125 C 5.300781 -0.460938 5.144531 -0.367188 5 -0.296875 C 4.769531 -0.179688 4.507812 -0.09375 4.21875 -0.03125 C 3.925781 0.0195312 3.578125 0.046875 3.171875 0.046875 C 2.984375 0.046875 2.78125 0.0351562 2.5625 0.015625 C 2.34375 0.00390625 2.113281 0 1.875 0 C 1.71875 0 1.5625 0 1.40625 0 C 1.25 0.0078125 1.085938 0.0195312 0.921875 0.03125 C 0.765625 0.0390625 0.601562 0.046875 0.4375 0.046875 Z M 3.234375 -0.484375 C 3.472656 -0.484375 3.695312 -0.550781 3.90625 -0.6875 C 4.125 -0.820312 4.296875 -1 4.421875 -1.21875 C 4.546875 -1.445312 4.609375 -1.695312 4.609375 -1.96875 C 4.609375 -2.226562 4.570312 -2.4375 4.5 -2.59375 C 4.425781 -2.757812 4.34375 -2.894531 4.25 -3 C 4.15625 -3.101562 4.070312 -3.179688 4 -3.234375 C 3.925781 -3.273438 3.8125 -3.320312 3.65625 -3.375 C 3.5 -3.4375 3.296875 -3.46875 3.046875 -3.46875 C 2.890625 -3.46875 2.765625 -3.429688 2.671875 -3.359375 C 2.578125 -3.296875 2.53125 -3.21875 2.53125 -3.125 L 2.53125 -1.171875 C 2.53125 -0.929688 2.585938 -0.753906 2.703125 -0.640625 C 2.828125 -0.535156 3.003906 -0.484375 3.234375 -0.484375 Z M 2.96875 -3.875 C 3.144531 -3.875 3.316406 -3.894531 3.484375 -3.9375 C 3.648438 -3.976562 3.816406 -4.054688 3.984375 -4.171875 C 4.046875 -4.222656 4.125 -4.328125 4.21875 -4.484375 C 4.3125 -4.640625 4.359375 -4.863281 4.359375 -5.15625 C 4.359375 -5.414062 4.320312 -5.644531 4.25 -5.84375 C 4.175781 -6.050781 4.050781 -6.210938 3.875 -6.328125 C 3.695312 -6.441406 3.453125 -6.5 3.140625 -6.5 C 2.898438 -6.5 2.738281 -6.457031 2.65625 -6.375 C 2.570312 -6.300781 2.53125 -6.1875 2.53125 -6.03125 L 2.53125 -4.265625 C 2.53125 -4.109375 2.582031 -4.003906 2.6875 -3.953125 C 2.789062 -3.898438 2.882812 -3.875 2.96875 -3.875 Z M 2.96875 -3.875 "/></g></g></g><g fill="#1c306e" fill-opacity="1"><g transform="translate(212.745745, 260.00424)"><g><path d="M 0.515625 0.046875 C 0.441406 0.046875 0.378906 0.03125 0.328125 0 C 0.285156 -0.0195312 0.265625 -0.0507812 0.265625 -0.09375 C 0.265625 -0.1875 0.351562 -0.253906 0.53125 -0.296875 C 0.789062 -0.359375 0.972656 -0.4375 1.078125 -0.53125 C 1.179688 -0.625 1.234375 -0.785156 1.234375 -1.015625 L 1.234375 -5.78125 C 1.234375 -6.019531 1.1875 -6.1875 1.09375 -6.28125 C 1 -6.382812 0.820312 -6.460938 0.5625 -6.515625 C 0.46875 -6.535156 0.398438 -6.566406 0.359375 -6.609375 C 0.316406 -6.648438 0.296875 -6.691406 0.296875 -6.734375 C 0.296875 -6.773438 0.316406 -6.804688 0.359375 -6.828125 C 0.410156 -6.859375 0.472656 -6.875 0.546875 -6.875 C 0.753906 -6.875 0.945312 -6.867188 1.125 -6.859375 C 1.3125 -6.859375 1.492188 -6.851562 1.671875 -6.84375 C 1.847656 -6.832031 2.03125 -6.828125 2.21875 -6.828125 C 2.539062 -6.828125 2.878906 -6.832031 3.234375 -6.84375 C 3.597656 -6.851562 3.925781 -6.859375 4.21875 -6.859375 C 4.445312 -6.859375 4.632812 -6.863281 4.78125 -6.875 C 4.9375 -6.894531 5.03125 -6.90625 5.0625 -6.90625 C 5.101562 -6.90625 5.148438 -6.894531 5.203125 -6.875 C 5.265625 -6.851562 5.296875 -6.8125 5.296875 -6.75 C 5.328125 -6.519531 5.363281 -6.289062 5.40625 -6.0625 C 5.445312 -5.84375 5.46875 -5.648438 5.46875 -5.484375 C 5.46875 -5.421875 5.453125 -5.375 5.421875 -5.34375 C 5.390625 -5.3125 5.359375 -5.296875 5.328125 -5.296875 C 5.285156 -5.296875 5.25 -5.304688 5.21875 -5.328125 C 5.195312 -5.347656 5.175781 -5.382812 5.15625 -5.4375 C 5.09375 -5.59375 5.035156 -5.726562 4.984375 -5.84375 C 4.941406 -5.96875 4.890625 -6.0625 4.828125 -6.125 C 4.734375 -6.226562 4.625 -6.304688 4.5 -6.359375 C 4.382812 -6.421875 4.242188 -6.453125 4.078125 -6.453125 L 3.109375 -6.453125 C 2.972656 -6.453125 2.851562 -6.410156 2.75 -6.328125 C 2.644531 -6.253906 2.59375 -6.15625 2.59375 -6.03125 L 2.59375 -3.96875 C 2.59375 -3.882812 2.613281 -3.820312 2.65625 -3.78125 C 2.707031 -3.738281 2.765625 -3.71875 2.828125 -3.71875 L 3.796875 -3.71875 C 3.984375 -3.71875 4.117188 -3.769531 4.203125 -3.875 C 4.285156 -3.976562 4.351562 -4.125 4.40625 -4.3125 C 4.457031 -4.445312 4.523438 -4.515625 4.609375 -4.515625 C 4.640625 -4.515625 4.671875 -4.492188 4.703125 -4.453125 C 4.734375 -4.421875 4.75 -4.375 4.75 -4.3125 C 4.738281 -4.238281 4.726562 -4.148438 4.71875 -4.046875 C 4.71875 -3.953125 4.710938 -3.859375 4.703125 -3.765625 C 4.703125 -3.671875 4.703125 -3.582031 4.703125 -3.5 C 4.703125 -3.414062 4.703125 -3.320312 4.703125 -3.21875 C 4.710938 -3.113281 4.71875 -3.007812 4.71875 -2.90625 C 4.71875 -2.800781 4.722656 -2.71875 4.734375 -2.65625 C 4.742188 -2.570312 4.738281 -2.507812 4.71875 -2.46875 C 4.695312 -2.425781 4.664062 -2.40625 4.625 -2.40625 C 4.507812 -2.40625 4.429688 -2.503906 4.390625 -2.703125 C 4.328125 -2.898438 4.253906 -3.046875 4.171875 -3.140625 C 4.097656 -3.242188 4 -3.296875 3.875 -3.296875 L 2.875 -3.296875 C 2.789062 -3.296875 2.722656 -3.273438 2.671875 -3.234375 C 2.617188 -3.203125 2.59375 -3.132812 2.59375 -3.03125 L 2.59375 -1.046875 C 2.59375 -0.804688 2.640625 -0.640625 2.734375 -0.546875 C 2.835938 -0.460938 2.992188 -0.421875 3.203125 -0.421875 L 4.0625 -0.421875 C 4.238281 -0.421875 4.394531 -0.4375 4.53125 -0.46875 C 4.675781 -0.507812 4.800781 -0.566406 4.90625 -0.640625 C 5.03125 -0.722656 5.140625 -0.835938 5.234375 -0.984375 C 5.328125 -1.128906 5.421875 -1.289062 5.515625 -1.46875 C 5.535156 -1.519531 5.5625 -1.550781 5.59375 -1.5625 C 5.625 -1.582031 5.660156 -1.59375 5.703125 -1.59375 C 5.734375 -1.59375 5.753906 -1.570312 5.765625 -1.53125 C 5.785156 -1.5 5.796875 -1.460938 5.796875 -1.421875 C 5.796875 -1.316406 5.78125 -1.1875 5.75 -1.03125 C 5.71875 -0.882812 5.675781 -0.726562 5.625 -0.5625 C 5.570312 -0.394531 5.523438 -0.242188 5.484375 -0.109375 C 5.460938 -0.0546875 5.429688 -0.0195312 5.390625 0 C 5.359375 0.03125 5.316406 0.046875 5.265625 0.046875 C 5.097656 0.046875 4.882812 0.0390625 4.625 0.03125 C 4.363281 0.03125 4.078125 0.0234375 3.765625 0.015625 C 3.453125 0.015625 3.132812 0.0078125 2.8125 0 C 2.488281 0 2.179688 0 1.890625 0 C 1.742188 0 1.59375 0 1.4375 0 C 1.289062 0.0078125 1.140625 0.0195312 0.984375 0.03125 C 0.828125 0.0390625 0.671875 0.046875 0.515625 0.046875 Z M 0.515625 0.046875 "/></g></g></g><g fill="#1c306e" fill-opacity="1"><g transform="translate(221.56835, 260.00424)"><g><path d="M 0.484375 0.046875 C 0.410156 0.046875 0.347656 0.03125 0.296875 0 C 0.253906 -0.03125 0.234375 -0.0625 0.234375 -0.09375 C 0.234375 -0.144531 0.257812 -0.1875 0.3125 -0.21875 C 0.363281 -0.25 0.414062 -0.273438 0.46875 -0.296875 C 0.71875 -0.359375 0.898438 -0.4375 1.015625 -0.53125 C 1.140625 -0.625 1.203125 -0.78125 1.203125 -1 L 1.203125 -5.84375 C 1.203125 -6 1.179688 -6.117188 1.140625 -6.203125 C 1.097656 -6.285156 1.03125 -6.347656 0.9375 -6.390625 C 0.84375 -6.441406 0.707031 -6.484375 0.53125 -6.515625 C 0.34375 -6.554688 0.25 -6.628906 0.25 -6.734375 C 0.25 -6.773438 0.273438 -6.804688 0.328125 -6.828125 C 0.378906 -6.859375 0.4375 -6.875 0.5 -6.875 C 0.664062 -6.875 0.828125 -6.867188 0.984375 -6.859375 C 1.148438 -6.859375 1.304688 -6.851562 1.453125 -6.84375 C 1.597656 -6.832031 1.742188 -6.828125 1.890625 -6.828125 C 2.054688 -6.828125 2.21875 -6.832031 2.375 -6.84375 C 2.539062 -6.851562 2.707031 -6.859375 2.875 -6.859375 C 3.050781 -6.867188 3.222656 -6.875 3.390625 -6.875 C 3.453125 -6.875 3.503906 -6.859375 3.546875 -6.828125 C 3.597656 -6.804688 3.625 -6.773438 3.625 -6.734375 C 3.625 -6.671875 3.597656 -6.625 3.546875 -6.59375 C 3.503906 -6.5625 3.441406 -6.535156 3.359375 -6.515625 C 3.078125 -6.453125 2.875 -6.378906 2.75 -6.296875 C 2.625 -6.210938 2.5625 -6.070312 2.5625 -5.875 L 2.5625 -1.0625 C 2.5625 -0.851562 2.601562 -0.703125 2.6875 -0.609375 C 2.78125 -0.515625 2.953125 -0.46875 3.203125 -0.46875 L 4.359375 -0.46875 C 4.515625 -0.46875 4.660156 -0.492188 4.796875 -0.546875 C 4.929688 -0.609375 5.039062 -0.679688 5.125 -0.765625 C 5.25 -0.878906 5.351562 -1 5.4375 -1.125 C 5.519531 -1.25 5.597656 -1.394531 5.671875 -1.5625 C 5.722656 -1.664062 5.769531 -1.742188 5.8125 -1.796875 C 5.851562 -1.859375 5.894531 -1.890625 5.9375 -1.890625 C 5.988281 -1.890625 6.023438 -1.863281 6.046875 -1.8125 C 6.066406 -1.769531 6.078125 -1.726562 6.078125 -1.6875 C 6.078125 -1.675781 6.070312 -1.648438 6.0625 -1.609375 C 6.0625 -1.578125 6.0625 -1.550781 6.0625 -1.53125 C 6 -1.332031 5.945312 -1.15625 5.90625 -1 C 5.875 -0.851562 5.84375 -0.710938 5.8125 -0.578125 C 5.789062 -0.441406 5.769531 -0.296875 5.75 -0.140625 C 5.738281 -0.0859375 5.722656 -0.0390625 5.703125 0 C 5.679688 0.03125 5.640625 0.046875 5.578125 0.046875 C 5.367188 0.046875 5.117188 0.0390625 4.828125 0.03125 C 4.535156 0.03125 4.222656 0.0234375 3.890625 0.015625 C 3.554688 0.015625 3.222656 0.0078125 2.890625 0 C 2.554688 0 2.242188 0 1.953125 0 C 1.796875 0 1.617188 0 1.421875 0 C 1.222656 0.0078125 1.035156 0.0195312 0.859375 0.03125 C 0.679688 0.0390625 0.554688 0.046875 0.484375 0.046875 Z M 0.484375 0.046875 "/></g></g></g><g fill="#1c306e" fill-opacity="1"><g transform="translate(230.538126, 260.00424)"><g><path d="M 0.484375 0.046875 C 0.410156 0.046875 0.347656 0.03125 0.296875 0 C 0.253906 -0.03125 0.234375 -0.0625 0.234375 -0.09375 C 0.234375 -0.144531 0.257812 -0.1875 0.3125 -0.21875 C 0.363281 -0.25 0.414062 -0.273438 0.46875 -0.296875 C 0.71875 -0.359375 0.898438 -0.4375 1.015625 -0.53125 C 1.140625 -0.625 1.203125 -0.78125 1.203125 -1 L 1.203125 -5.84375 C 1.203125 -6 1.179688 -6.117188 1.140625 -6.203125 C 1.097656 -6.285156 1.03125 -6.347656 0.9375 -6.390625 C 0.84375 -6.441406 0.707031 -6.484375 0.53125 -6.515625 C 0.34375 -6.554688 0.25 -6.628906 0.25 -6.734375 C 0.25 -6.773438 0.273438 -6.804688 0.328125 -6.828125 C 0.378906 -6.859375 0.4375 -6.875 0.5 -6.875 C 0.664062 -6.875 0.828125 -6.867188 0.984375 -6.859375 C 1.148438 -6.859375 1.304688 -6.851562 1.453125 -6.84375 C 1.597656 -6.832031 1.742188 -6.828125 1.890625 -6.828125 C 2.054688 -6.828125 2.21875 -6.832031 2.375 -6.84375 C 2.539062 -6.851562 2.707031 -6.859375 2.875 -6.859375 C 3.050781 -6.867188 3.222656 -6.875 3.390625 -6.875 C 3.453125 -6.875 3.503906 -6.859375 3.546875 -6.828125 C 3.597656 -6.804688 3.625 -6.773438 3.625 -6.734375 C 3.625 -6.671875 3.597656 -6.625 3.546875 -6.59375 C 3.503906 -6.5625 3.441406 -6.535156 3.359375 -6.515625 C 3.078125 -6.453125 2.875 -6.378906 2.75 -6.296875 C 2.625 -6.210938 2.5625 -6.070312 2.5625 -5.875 L 2.5625 -1.0625 C 2.5625 -0.851562 2.601562 -0.703125 2.6875 -0.609375 C 2.78125 -0.515625 2.953125 -0.46875 3.203125 -0.46875 L 4.359375 -0.46875 C 4.515625 -0.46875 4.660156 -0.492188 4.796875 -0.546875 C 4.929688 -0.609375 5.039062 -0.679688 5.125 -0.765625 C 5.25 -0.878906 5.351562 -1 5.4375 -1.125 C 5.519531 -1.25 5.597656 -1.394531 5.671875 -1.5625 C 5.722656 -1.664062 5.769531 -1.742188 5.8125 -1.796875 C 5.851562 -1.859375 5.894531 -1.890625 5.9375 -1.890625 C 5.988281 -1.890625 6.023438 -1.863281 6.046875 -1.8125 C 6.066406 -1.769531 6.078125 -1.726562 6.078125 -1.6875 C 6.078125 -1.675781 6.070312 -1.648438 6.0625 -1.609375 C 6.0625 -1.578125 6.0625 -1.550781 6.0625 -1.53125 C 6 -1.332031 5.945312 -1.15625 5.90625 -1 C 5.875 -0.851562 5.84375 -0.710938 5.8125 -0.578125 C 5.789062 -0.441406 5.769531 -0.296875 5.75 -0.140625 C 5.738281 -0.0859375 5.722656 -0.0390625 5.703125 0 C 5.679688 0.03125 5.640625 0.046875 5.578125 0.046875 C 5.367188 0.046875 5.117188 0.0390625 4.828125 0.03125 C 4.535156 0.03125 4.222656 0.0234375 3.890625 0.015625 C 3.554688 0.015625 3.222656 0.0078125 2.890625 0 C 2.554688 0 2.242188 0 1.953125 0 C 1.796875 0 1.617188 0 1.421875 0 C 1.222656 0.0078125 1.035156 0.0195312 0.859375 0.03125 C 0.679688 0.0390625 0.554688 0.046875 0.484375 0.046875 Z M 0.484375 0.046875 "/></g></g></g><g fill="#1c306e" fill-opacity="1"><g transform="translate(239.507901, 260.00424)"><g><path d="M 0.421875 0.046875 C 0.359375 0.046875 0.300781 0.03125 0.25 0 C 0.195312 -0.0195312 0.171875 -0.0507812 0.171875 -0.09375 C 0.171875 -0.195312 0.257812 -0.269531 0.4375 -0.3125 C 0.707031 -0.363281 0.898438 -0.4375 1.015625 -0.53125 C 1.140625 -0.632812 1.203125 -0.796875 1.203125 -1.015625 L 1.203125 -5.796875 C 1.203125 -6.023438 1.148438 -6.1875 1.046875 -6.28125 C 0.953125 -6.382812 0.769531 -6.460938 0.5 -6.515625 C 0.320312 -6.554688 0.234375 -6.628906 0.234375 -6.734375 C 0.234375 -6.773438 0.253906 -6.804688 0.296875 -6.828125 C 0.347656 -6.859375 0.40625 -6.875 0.46875 -6.875 C 0.632812 -6.875 0.796875 -6.867188 0.953125 -6.859375 C 1.117188 -6.859375 1.273438 -6.851562 1.421875 -6.84375 C 1.578125 -6.832031 1.734375 -6.828125 1.890625 -6.828125 C 2.035156 -6.828125 2.179688 -6.832031 2.328125 -6.84375 C 2.484375 -6.851562 2.640625 -6.859375 2.796875 -6.859375 C 2.960938 -6.867188 3.128906 -6.875 3.296875 -6.875 C 3.367188 -6.875 3.425781 -6.859375 3.46875 -6.828125 C 3.507812 -6.804688 3.53125 -6.773438 3.53125 -6.734375 C 3.53125 -6.671875 3.503906 -6.625 3.453125 -6.59375 C 3.410156 -6.5625 3.347656 -6.535156 3.265625 -6.515625 C 2.984375 -6.453125 2.796875 -6.367188 2.703125 -6.265625 C 2.609375 -6.171875 2.5625 -6.007812 2.5625 -5.78125 L 2.5625 -1.03125 C 2.5625 -0.8125 2.617188 -0.648438 2.734375 -0.546875 C 2.847656 -0.453125 3.035156 -0.375 3.296875 -0.3125 C 3.390625 -0.28125 3.457031 -0.25 3.5 -0.21875 C 3.550781 -0.195312 3.578125 -0.160156 3.578125 -0.109375 C 3.578125 -0.0546875 3.554688 -0.0195312 3.515625 0 C 3.472656 0.0195312 3.414062 0.03125 3.34375 0.03125 C 3.175781 0.03125 3.007812 0.0234375 2.84375 0.015625 C 2.675781 0.015625 2.507812 0.0078125 2.34375 0 C 2.1875 -0.0078125 2.035156 -0.015625 1.890625 -0.015625 C 1.734375 -0.015625 1.570312 -0.0078125 1.40625 0 C 1.25 0.0078125 1.085938 0.0195312 0.921875 0.03125 C 0.753906 0.0390625 0.585938 0.046875 0.421875 0.046875 Z M 0.421875 0.046875 "/></g></g></g><g fill="#1c306e" fill-opacity="1"><g transform="translate(246.070481, 260.00424)"><g><path d="M 6.75 0.21875 C 6.445312 0.21875 6.179688 0.179688 5.953125 0.109375 C 5.734375 0.046875 5.539062 -0.046875 5.375 -0.171875 C 5.21875 -0.296875 5.070312 -0.441406 4.9375 -0.609375 C 4.789062 -0.816406 4.640625 -1.019531 4.484375 -1.21875 C 4.335938 -1.425781 4.1875 -1.648438 4.03125 -1.890625 C 3.882812 -2.128906 3.722656 -2.414062 3.546875 -2.75 C 3.453125 -2.914062 3.335938 -3.035156 3.203125 -3.109375 C 3.109375 -3.160156 3.015625 -3.195312 2.921875 -3.21875 C 2.828125 -3.238281 2.75 -3.25 2.6875 -3.25 C 2.644531 -3.257812 2.613281 -3.242188 2.59375 -3.203125 C 2.570312 -3.160156 2.5625 -3.101562 2.5625 -3.03125 L 2.5625 -1.078125 C 2.5625 -0.859375 2.617188 -0.691406 2.734375 -0.578125 C 2.847656 -0.460938 3.046875 -0.375 3.328125 -0.3125 C 3.410156 -0.289062 3.472656 -0.265625 3.515625 -0.234375 C 3.554688 -0.203125 3.578125 -0.160156 3.578125 -0.109375 C 3.578125 -0.0546875 3.554688 -0.0195312 3.515625 0 C 3.484375 0.0195312 3.429688 0.03125 3.359375 0.03125 C 3.191406 0.03125 3.023438 0.0234375 2.859375 0.015625 C 2.691406 0.00390625 2.53125 0 2.375 0 C 2.21875 -0.0078125 2.066406 -0.015625 1.921875 -0.015625 C 1.765625 -0.015625 1.601562 -0.0078125 1.4375 0 C 1.28125 0 1.113281 0.00390625 0.9375 0.015625 C 0.769531 0.0351562 0.601562 0.046875 0.4375 0.046875 C 0.375 0.046875 0.316406 0.03125 0.265625 0 C 0.222656 -0.0195312 0.203125 -0.0507812 0.203125 -0.09375 C 0.203125 -0.195312 0.289062 -0.269531 0.46875 -0.3125 C 0.726562 -0.363281 0.914062 -0.4375 1.03125 -0.53125 C 1.144531 -0.632812 1.203125 -0.800781 1.203125 -1.03125 L 1.203125 -5.671875 C 1.203125 -5.878906 1.1875 -6.035156 1.15625 -6.140625 C 1.125 -6.253906 1.0625 -6.335938 0.96875 -6.390625 C 0.875 -6.453125 0.738281 -6.492188 0.5625 -6.515625 C 0.457031 -6.535156 0.382812 -6.566406 0.34375 -6.609375 C 0.300781 -6.648438 0.28125 -6.691406 0.28125 -6.734375 C 0.28125 -6.773438 0.300781 -6.804688 0.34375 -6.828125 C 0.394531 -6.859375 0.457031 -6.875 0.53125 -6.875 C 0.75 -6.875 0.921875 -6.867188 1.046875 -6.859375 C 1.171875 -6.859375 1.289062 -6.851562 1.40625 -6.84375 C 1.519531 -6.832031 1.65625 -6.828125 1.8125 -6.828125 C 1.96875 -6.828125 2.101562 -6.832031 2.21875 -6.84375 C 2.34375 -6.851562 2.476562 -6.863281 2.625 -6.875 C 2.769531 -6.894531 2.960938 -6.90625 3.203125 -6.90625 C 4.003906 -6.90625 4.617188 -6.765625 5.046875 -6.484375 C 5.472656 -6.203125 5.6875 -5.773438 5.6875 -5.203125 C 5.6875 -4.890625 5.617188 -4.617188 5.484375 -4.390625 C 5.359375 -4.171875 5.191406 -3.992188 4.984375 -3.859375 C 4.785156 -3.722656 4.582031 -3.613281 4.375 -3.53125 C 4.34375 -3.519531 4.328125 -3.5 4.328125 -3.46875 C 4.335938 -3.445312 4.351562 -3.425781 4.375 -3.40625 C 4.582031 -3.082031 4.785156 -2.773438 4.984375 -2.484375 C 5.191406 -2.191406 5.40625 -1.914062 5.625 -1.65625 C 5.84375 -1.394531 6.082031 -1.148438 6.34375 -0.921875 C 6.5625 -0.710938 6.78125 -0.585938 7 -0.546875 C 7.226562 -0.515625 7.46875 -0.5 7.71875 -0.5 C 7.820312 -0.5 7.875 -0.445312 7.875 -0.34375 C 7.875 -0.195312 7.820312 -0.0820312 7.71875 0 C 7.613281 0.0703125 7.472656 0.125 7.296875 0.15625 C 7.128906 0.195312 6.945312 0.21875 6.75 0.21875 Z M 3 -3.546875 C 3.289062 -3.546875 3.53125 -3.609375 3.71875 -3.734375 C 3.914062 -3.867188 4.066406 -4.046875 4.171875 -4.265625 C 4.273438 -4.484375 4.328125 -4.726562 4.328125 -5 C 4.328125 -5.3125 4.285156 -5.578125 4.203125 -5.796875 C 4.128906 -6.015625 4 -6.1875 3.8125 -6.3125 C 3.625 -6.4375 3.367188 -6.5 3.046875 -6.5 C 2.867188 -6.5 2.742188 -6.429688 2.671875 -6.296875 C 2.609375 -6.171875 2.570312 -5.910156 2.5625 -5.515625 C 2.5625 -5.359375 2.5625 -5.144531 2.5625 -4.875 C 2.5625 -4.613281 2.5625 -4.300781 2.5625 -3.9375 C 2.5625 -3.789062 2.597656 -3.6875 2.671875 -3.625 C 2.753906 -3.570312 2.863281 -3.546875 3 -3.546875 Z M 3 -3.546875 "/></g></g></g><g fill="#1c306e" fill-opacity="1"><g transform="translate(256.706886, 260.00424)"><g/></g></g></svg>