<svg xmlns="http://www.w3.org/2000/svg" xmlns:xlink="http://www.w3.org/1999/xlink" width="500" zoomAndPan="magnify" viewBox="0 0 375 374.999991" height="500" preserveAspectRatio="xMidYMid meet" version="1.0"><defs><clipPath id="id1"><path d="M 64.425781 114.039062 L 310.425781 114.039062 L 310.425781 189.039062 L 64.425781 189.039062 Z M 64.425781 114.039062 " clip-rule="nonzero"/></clipPath></defs><g clip-path="url(#id1)"><path fill="#1880ad" d="M 310.027344 143.804688 C 292.089844 164.285156 263.425781 173.863281 228.015625 173.574219 C 222.960938 173.53125 217.910156 173.304688 212.871094 172.953125 C 188.59375 171.257812 164.539062 166.65625 140.917969 165.816406 C 116.058594 164.933594 87.898438 167.875 64.824219 176.96875 C 78.167969 164.578125 98.625 157.332031 126.195312 155.234375 C 163.417969 152.402344 199.554688 164.082031 236.539062 163.054688 C 264.425781 162.28125 288.3125 154.847656 310.027344 143.804688 Z M 218.195312 138.625 C 224.527344 137.097656 230.925781 135.675781 237.804688 135.054688 C 235.746094 137.453125 234.113281 140.109375 232.65625 142.871094 C 232.625 141.546875 232.59375 140.21875 232.5625 138.894531 C 227.773438 138.804688 222.984375 138.714844 218.195312 138.625 Z M 121.753906 138.847656 C 143.953125 128.195312 166.390625 118.210938 191.257812 115.074219 C 179.269531 112.679688 165.585938 114.609375 150.949219 118.960938 C 148.542969 117.054688 146.566406 114.679688 143.417969 114.367188 C 136.132812 113.636719 129.726562 120.160156 124.015625 123.933594 C 128.402344 122.511719 132.820312 121.195312 137.390625 120.5 C 131.707031 126.011719 126.59375 132.253906 121.753906 138.847656 Z M 120.257812 144.523438 C 164.613281 123.257812 202.25 111.390625 214.871094 122.894531 C 189.4375 121.832031 156.542969 130.882812 120.257812 144.523438 Z M 236.902344 158.402344 C 246.769531 144.972656 260.003906 132.957031 274.457031 121.453125 C 209.425781 123.46875 150.261719 133.679688 99.671875 155.878906 C 149.328125 142.460938 200.367188 133.011719 253.875 130.648438 C 244.539062 138.832031 238.765625 148.050781 236.902344 158.402344 Z M 90.824219 177.148438 C 119.085938 167.789062 155.960938 175.777344 184.675781 179.164062 C 217.484375 183.035156 245.558594 180.996094 270.304688 174.804688 C 253.230469 188.542969 223.277344 191.605469 184.195312 187.105469 C 152.765625 183.488281 122.773438 177.148438 90.824219 177.148438 Z M 90.824219 177.148438 " fill-opacity="1" fill-rule="evenodd"/></g></svg>